<?xml version="1.0" encoding="UTF-8"?>
<svg xmlns="http://www.w3.org/2000/svg" version="1.1" viewBox="0 0 450 562.5">
  <!-- Generator: Adobe Illustrator 30.2.1, SVG Export Plug-In . SVG Version: 2.1.1 Build 1)  -->
  <defs>
    <style>
      .st0 {
        fill: none;
      }

      .st1 {
        fill: #231f20;
        stroke: #231f20;
        stroke-miterlimit: 10;
      }

      .st2 {
        display: none;
      }
    </style>
  </defs>
  <g id="Layer_6">
    <g id="Layer_2">
      <path d="M315.53,137.48c-2.36,0-4.71-.91-6.34-2.72-46.39-46.39-121.95-46.39-168.34,0-3.62,3.44-9.24,3.44-12.87,0s-3.62-9.24,0-12.87c53.46-53.46,140.44-53.46,193.89,0,3.62,3.44,3.62,9.24,0,12.87-1.63,1.81-3.99,2.72-6.34,2.72Z"/>
    </g>
    <g id="Layer_3">
      <path d="M420.3,257.29c-4.04,13.96-9.46,27.01-16.24,39.17-8.64,30.72-23.68,59.6-45.14,83.91-67.87,76.9-174.44,82.4-248.17,13.1-.17,0-.34-.19-.34-.38-4.36-3.99-8.55-8.35-12.4-12.72-3.85-4.37-7.54-9.11-11.23-14.05q-.17-.19-.34-.38c-16.25-22.13-34.83-72.74-34.83-72.74,0,0-18.6-38.46-24.33-60.04.05,53.33,16.49,104.62,46.59,145.49q.17.19.34.38c3.85,5.13,7.88,10.25,11.9,14.81,4.02,4.56,8.55,9.11,13.07,13.48,0,.19.17.19.34.38,36.2,34.18,81.77,52.78,128.86,52.78h8.71c50.44-2.47,98.03-26.2,133.72-66.64,39.07-44.27,58.65-102.4,58.79-160.58-2.56,8.17-5.64,16.18-9.31,24.01Z"/>
    </g>
    <g id="Layer_4">
      <g>
        <path class="st0" d="M94.29,352.93c33.92,31.92,79.48,51.91,129.66,53.06v-18.21c-45.09-1.15-86.03-19.11-116.6-47.74l-13.06,12.88Z"/>
        <path class="st0" d="M404.72,218.55c-1.17,44.49-19.37,84.88-48.39,115.04l13.06,12.88c32.35-33.46,52.61-78.39,53.78-127.92h-18.45Z"/>
        <path class="st0" d="M52.41,218.55h-18.45c1.17,49.53,21.43,94.46,53.78,127.92l13.06-12.88c-29.02-30.16-47.22-70.55-48.39-115.04Z"/>
        <path class="st0" d="M223.95,22c-50.21,1.16-95.77,21.13-129.68,53.05l13.04,12.93c30.58-28.65,71.53-46.62,116.64-47.77v-18.21Z"/>
        <path class="st0" d="M233.18,405.99c50.2-1.16,95.77-21.15,129.7-53.1l-13.09-12.85c-30.57,28.63-71.51,46.59-116.61,47.74v18.21Z"/>
        <path class="st0" d="M362.84,75.06c-33.92-31.92-79.48-51.91-129.66-53.06v18.21c45.09,1.15,86.03,19.11,116.6,47.74l13.06-12.88Z"/>
        <path class="st0" d="M423.17,209.44c-1.17-49.53-21.44-94.47-53.79-127.93l-13.09,12.85c29.04,30.17,47.26,70.57,48.42,115.08h18.45Z"/>
        <path class="st0" d="M87.73,81.5c-32.35,33.46-52.6,78.4-53.77,127.94h18.45c1.17-44.51,19.38-84.91,48.42-115.08l-13.1-12.87Z"/>
        <path d="M223.95,410.6v-4.61c-50.18-1.16-95.73-21.14-129.66-53.06l-3.38,3.33c-.92.91-2.03,1.27-3.23,1.27s-2.4-.46-3.23-1.37c-1.75-1.82-1.75-4.64,0-6.46l3.28-3.24c-32.35-33.46-52.61-78.39-53.78-127.92h-4.67c-2.58,0-4.61-2-4.61-4.55,0,53.7,21.13,104.31,59.69,142.26,38.56,37.96,89.77,58.89,144.2,58.89-2.58,0-4.61-2-4.61-4.55Z"/>
        <path d="M366.21,356.17l-3.34-3.28c-33.93,31.95-79.5,51.94-129.7,53.1v4.61c0,2.55-2.03,4.55-4.61,4.55,54.43,0,105.73-20.84,144.2-58.89-.92.91-2.12,1.27-3.32,1.27s-2.4-.46-3.23-1.37Z"/>
        <path d="M29.29,209.44h4.67c1.17-49.54,21.42-94.48,53.77-127.94l-3.37-3.31c-1.75-1.73-1.75-4.64,0-6.46-38.47,38.05-59.69,88.56-59.69,142.26,0-2.55,2.03-4.55,4.61-4.55Z"/>
        <path d="M61.58,214c0,2.55-2.03,4.55-4.61,4.55h-4.55c1.17,44.49,19.37,84.88,48.39,115.04l3.13-3.08c1.75-1.82,4.71-1.82,6.55,0,1.85,1.82,1.75,4.64,0,6.46l-3.13,3.08c30.57,28.63,71.51,46.59,116.6,47.74v-4.49c0-2.55,2.03-4.55,4.61-4.55-92.07,0-166.99-73.91-166.99-164.75Z"/>
        <path d="M395.55,214c0-2.55,2.03-4.55,4.61-4.55h4.55c-1.17-44.51-19.38-84.91-48.42-115.08l-3.18,3.12c-.83.91-2.03,1.37-3.23,1.37s-2.4-.46-3.23-1.37c-1.85-1.73-1.85-4.64,0-6.46l3.13-3.08c-30.57-28.63-71.51-46.59-116.6-47.74v4.49c0,2.55-2.03,4.55-4.61,4.55,92.07,0,166.99,73.91,166.99,164.75Z"/>
        <path d="M427.84,218.55h-4.67c-1.17,49.53-21.43,94.46-53.78,127.92l3.38,3.33c1.85,1.82,1.85,4.64,0,6.46,38.47-38.05,59.69-88.56,59.69-142.26,0,2.55-2.03,4.55-4.61,4.55Z"/>
        <path d="M400.17,218.55c-2.58,0-4.61-2-4.61-4.55,0,90.84-74.91,164.75-166.99,164.75,2.58,0,4.61,2,4.61,4.55v4.49c45.1-1.15,86.04-19.11,116.61-47.74l-3.13-3.08c-1.85-1.82-1.85-4.64,0-6.46,1.85-1.82,4.71-1.82,6.55,0l3.13,3.08c29.02-30.16,47.22-70.55,48.39-115.04h-4.55Z"/>
        <path d="M90.92,71.73l3.35,3.32c33.91-31.92,79.47-51.9,129.68-53.05v-4.61c0-2.55,2.03-4.55,4.61-4.55-54.43,0-105.73,20.84-144.2,58.89,1.75-1.82,4.71-1.73,6.55,0Z"/>
        <g>
          <path d="M106.92,98.82c1.58-1.64,3.19-3.24,4.84-4.81-.07-1.07-.49-2.11-1.29-2.9l-3.17-3.14-13.04-12.93-3.35-3.32c-1.85-1.73-4.8-1.82-6.55,0-1.75,1.82-1.75,4.73,0,6.46l3.37,3.31,13.1,12.87,3.18,3.12c.75.83,1.81,1.26,2.9,1.33Z"/>
          <path class="st0" d="M228.57,49.25c-47.26,0-87.61,17.03-116.8,44.77.08,1.27-.33,2.58-1.29,3.57-.83.82-2.03,1.27-3.23,1.27-.11,0-.22-.02-.33-.03-28.68,29.73-45.34,70.39-45.34,115.17,0,90.84,74.91,164.75,166.99,164.75s166.99-73.91,166.99-164.75S320.64,49.25,228.57,49.25Z"/>
          <path d="M111.76,94.02c29.19-27.74,69.54-44.77,116.8-44.77-2.58,0-4.61-2-4.61-4.55v-4.49c-45.11,1.15-86.07,19.12-116.64,47.77l3.17,3.14c.8.79,1.22,1.83,1.29,2.9Z"/>
          <path d="M104.02,97.49l-3.18-3.12c-29.04,30.17-47.26,70.57-48.42,115.08h4.55c2.58,0,4.61,2,4.61,4.55,0-44.78,16.66-85.45,45.34-115.17-1.09-.08-2.15-.51-2.9-1.33Z"/>
        </g>
        <path d="M372.76,78.19l-3.39,3.32c32.36,33.46,52.62,78.39,53.79,127.93h4.67c2.58,0,4.61,2,4.61,4.55,0-53.7-21.13-104.31-59.69-142.26,1.84,1.73,1.84,4.64,0,6.46Z"/>
        <path d="M233.18,17.39v4.61c50.18,1.16,95.73,21.14,129.66,53.06l3.38-3.33c1.85-1.73,4.7-1.73,6.55,0-38.56-37.96-89.77-58.89-144.2-58.89,2.58,0,4.61,2,4.61,4.55Z"/>
        <path d="M223.95,17.39v27.31c0,2.55,2.03,4.55,4.61,4.55s4.61-2,4.61-4.55v-27.31c0-2.55-2.03-4.55-4.61-4.55s-4.61,2-4.61,4.55Z"/>
        <path d="M233.18,410.6v-27.31c0-2.55-2.03-4.55-4.61-4.55s-4.61,2-4.61,4.55v27.31c0,2.55,2.03,4.55,4.61,4.55s4.61-2,4.61-4.55Z"/>
        <path d="M366.21,71.73l-3.38,3.33-13.06,12.88-3.13,3.08c-1.85,1.82-1.85,4.73,0,6.46.83.91,2.03,1.37,3.23,1.37s2.4-.46,3.23-1.37l3.18-3.12,13.09-12.85,3.39-3.32c1.84-1.82,1.85-4.73,0-6.46,0,0,0,0,0,0,0,0,0,0,0,0-1.85-1.73-4.71-1.73-6.55,0Z"/>
        <path d="M110.47,336.96c1.75-1.82,1.85-4.64,0-6.46-1.85-1.82-4.8-1.82-6.55,0l-3.13,3.08-13.06,12.88-3.28,3.24c-1.75,1.82-1.75,4.64,0,6.46.83.91,2.03,1.37,3.23,1.37s2.31-.36,3.23-1.27l3.38-3.33,13.06-12.88,3.13-3.08Z"/>
        <path d="M29.29,218.55h27.68c2.58,0,4.61-2,4.61-4.55s-2.03-4.55-4.61-4.55h-27.68c-2.58,0-4.61,2-4.61,4.55s2.03,4.55,4.61,4.55Z"/>
        <path d="M427.84,209.44h-27.68c-2.58,0-4.61,2-4.61,4.55s2.03,4.55,4.61,4.55h27.68c2.58,0,4.61-2,4.61-4.55s-2.03-4.55-4.61-4.55Z"/>
        <path d="M372.77,356.26c1.84-1.82,1.84-4.64,0-6.46l-3.38-3.33-13.06-12.88-3.13-3.08c-1.85-1.82-4.71-1.82-6.55,0-1.85,1.82-1.85,4.64,0,6.46l3.13,3.08,13.09,12.85,3.34,3.28c.83.91,2.03,1.37,3.23,1.37s2.4-.36,3.32-1.27c0,0,0,0,0,0s0,0,0,0Z"/>
      </g>
    </g>
  </g>
  <g id="Layer_5">
    <g>
      <path class="st0" d="M228.45,380.87c41.77,0,79.95-14.4,109.12-38.09-89.64-65.72-174.28-95.56-273.51-96.39,10.07,75.68,79.93,134.48,164.4,134.48Z"/>
      <path class="st0" d="M243.9,203.78c-50.61-17.81-142.27-16.25-181.26-1.51-1.48,8.23.11,16.67.11,25.29,0,3.99.22,7.94.54,11.86,38.81.26,75.41,4.87,110.92,14.2,16.61-18.61,41.26-35.81,69.69-49.84Z"/>
      <path class="st0" d="M389.73,172.64c-71.97.84-166.18,38.74-207.65,83.13,54.7,15.53,107.01,42.45,161.1,82.24,31.38-27.91,50.96-67.09,50.96-110.44,0-18.47,2.09-38.51-4.41-54.92Z"/>
      <path d="M394.14,167.07c-.64-.11-1.27-.26-1.89-.44-41.29,1.32-99.86,14.75-139.54,32.94-49.91-20.36-149.68-16.53-194.36-1.94-.02.01-.04.02-.06.04-1.99,9.69-3.07,19.67-3.07,29.89,0,88.38,77.71,160.28,173.22,160.28s173.23-71.9,173.23-160.28c0-20.83.32-42.21-7.53-60.49ZM60.24,227.07c-1.17-9.02,1.34-23.78,2.4-24.8,38.99-14.74,130.66-16.3,181.26,1.51-28.43,14.03-53.08,31.23-69.69,49.84-35.51-9.34-73.82-14.28-112.63-14.55-.32-3.92-.82-8.04-1.34-12ZM228.45,380.87c-84.47,0-154.33-58.8-164.4-134.48,99.23.83,183.88,30.67,273.51,96.39-29.17,23.68-67.35,38.09-109.12,38.09ZM343.18,338.01c-54.08-39.79-106.39-66.71-161.1-82.24,41.47-44.39,137.5-83.6,209.46-84.44,6.5,16.41,4.01,36.84,4.01,55.31,0,43.36-21,83.46-52.37,111.37Z"/>
    </g>
  </g>
  <g id="Layer_7" class="st2">
    <g>
      <path class="st1" d="M281.05,68.07,357.26,267.52,160.67,350.82,84.46,151.37,97.39,156.88,166.37,337.42,344.33,262.01,275.34,81.47,272.49,88.17,337.86,259.26,169.22,330.72,103.85,159.63"/>
      <path class="st1" d="M157.81,357.52c-1.81-.77-2.6-2.85-1.81-4.73l8.56-20.1c.8-1.88,2.85-2.74,4.66-1.97s2.6,2.85,1.81,4.73l-8.56,20.1c-.8,1.88-2.85,2.74-4.66,1.97ZM272.49,88.17c-1.81-.77-2.6-2.85-1.81-4.73l8.56-20.1c.8-1.88,2.85-2.74,4.66-1.97s2.6,2.85,1.81,4.73l-8.56,20.1c-.8,1.88-2.85,2.74-4.66,1.97Z"/>
      <path class="st1" d="M77.16,273.08c-.84-.36-1.54-1.05-1.83-1.97-.66-1.86.23-3.94,2.03-4.76l19.66-8.33c1.8-.82,3.87.06,4.59,1.95s-.23,3.94-2.03,4.76l-19.75,8.37c-.93.39-1.82.33-2.66-.03ZM341.95,160.88c-.84-.36-1.54-1.05-1.83-1.97-.75-1.82.16-3.97,2.03-4.76l19.75-8.37c1.83-.72,3.84.13,4.59,1.95s-.16,3.97-2.03,4.76l-19.82,8.34c-.87.42-1.85.4-2.69.04Z"/>
      <path class="st1" d="M359.06,272.24l-19.39-8.26c-1.81-.77-2.6-2.85-1.81-4.73s2.85-2.74,4.66-1.97l19.39,8.26c1.81.77,2.6,2.85,1.81,4.73s-2.85,2.74-4.66,1.97ZM99.19,161.6l-19.39-8.26c-1.81-.77-2.6-2.85-1.81-4.73s2.85-2.74,4.66-1.97l19.39,8.26c1.81.77,2.6,2.85,1.81,4.73s-2.85,2.74-4.66,1.97Z"/>
      <path class="st1" d="M274.58,357.13c-.84-.36-1.54-1.05-1.83-1.97l-7.69-19.97c-.72-1.89.16-3.97,2.03-4.76,1.86-.79,3.87.06,4.59,1.95l7.66,20.04c.72,1.89-.16,3.97-2.03,4.76-.93.39-1.89.3-2.73-.05ZM171.94,88.5c-.84-.36-1.54-1.05-1.83-1.97l-7.72-20.07c-.69-1.8.23-3.94,2.03-4.76s3.84.13,4.59,1.95l7.63,20.11c.69,1.8-.23,3.94-2.03,4.76-.84.36-1.82.33-2.66-.03Z"/>
    </g>
  </g>
</svg>