<?xml version="1.0" encoding="UTF-8"?>
<svg xmlns="http://www.w3.org/2000/svg" version="1.1" viewBox="0 0 450 562.5">
  <!-- Generator: Adobe Illustrator 30.2.1, SVG Export Plug-In . SVG Version: 2.1.1 Build 1)  -->
  <g id="Layer_1">
    <path d="M228.35,355.58c-38.6,0-75.83-13.73-105.55-38.93q-.17-.17-.34-.35c-3.76-3.13-7.34-6.6-10.59-9.91-3.42-3.3-6.66-7.13-9.74-10.78l-.34-.35c-26.3-31.98-39.79-72.65-38.09-114.53,1.71-42.06,18.79-81.69,48.16-111.58,64.22-65.35,168.91-65.35,233.13,0,31.08,31.63,48.33,73.87,48.33,118.71s-17.08,86.9-48.33,118.71c-29.21,29.72-68.15,47.27-109.65,49.01-2.22,0-4.61,0-7,0ZM134.24,303.62c59.09,49.88,144.32,45.88,198.8-9.56,27.84-28.33,43.21-66.22,43.21-106.37s-15.37-77.86-43.21-106.37c-57.56-58.57-151.32-58.57-209.05,0-54.31,55.27-58.24,142.17-9.39,202.3q.17.17.34.35c2.9,3.48,5.98,6.95,9.05,10.08,3.07,3.13,6.49,6.26,9.91,9.21,0,.17.17.17.34.35Z"/>
  </g>
  <g id="Layer_2">
    <path d="M315.53,117.48c-2.36,0-4.71-.91-6.34-2.72-46.39-46.39-121.95-46.39-168.34,0-3.62,3.44-9.24,3.44-12.87,0s-3.62-9.24,0-12.87c53.46-53.46,140.44-53.46,193.89,0,3.62,3.44,3.62,9.24,0,12.87-1.63,1.81-3.99,2.72-6.34,2.72Z"/>
  </g>
  <g id="Layer_3">
    <path d="M420.3,237.43c-4.04,13.96-9.46,27.01-16.24,39.17-8.64,30.72-23.68,59.6-45.14,83.91-67.87,76.9-174.44,82.4-248.17,13.1-.17,0-.34-.19-.34-.38-4.36-3.99-8.55-8.35-12.4-12.72-3.85-4.37-7.54-9.11-11.23-14.05q-.17-.19-.34-.38c-16.25-22.13-34.83-72.74-34.83-72.74,0,0-18.6-38.46-24.33-60.04.05,53.33,16.49,104.62,46.59,145.49q.17.19.34.38c3.85,5.13,7.88,10.25,11.9,14.81,4.02,4.56,8.55,9.11,13.07,13.48,0,.19.17.19.34.38,36.2,34.18,81.77,52.78,128.86,52.78h8.71c50.44-2.47,98.03-26.2,133.72-66.64,39.07-44.27,58.65-102.4,58.79-160.58-2.56,8.17-5.64,16.18-9.31,24.01Z"/>
  </g>
  <g id="Layer_4">
    <g>
      <path d="M228.57,395.15c-54.43,0-105.64-20.93-144.2-58.89-38.56-37.96-59.69-88.56-59.69-142.26s21.22-104.22,59.69-142.26C122.84,13.69,174.13-7.16,228.57-7.16s105.64,20.93,144.2,58.89c38.56,37.96,59.69,88.56,59.69,142.26s-21.22,104.22-59.69,142.26c-38.47,38.05-89.77,58.89-144.2,58.89ZM228.57,1.94C121.18,1.94,33.9,88.05,33.9,194s87.37,192.05,194.66,192.05,194.66-86.1,194.66-192.05S335.86,1.94,228.57,1.94ZM228.57,367.84c-97.15,0-176.21-78-176.21-173.85S131.42,20.15,228.57,20.15s176.21,78,176.21,173.85-79.07,173.85-176.21,173.85ZM228.57,29.25c-92.07,0-166.99,73.91-166.99,164.75s74.91,164.75,166.99,164.75,166.99-73.91,166.99-164.75S320.64,29.25,228.57,29.25Z"/>
      <path d="M228.57,395.15c-2.58,0-4.61-2-4.61-4.55v-27.31c0-2.55,2.03-4.55,4.61-4.55s4.61,2,4.61,4.55v27.31c0,2.55-2.03,4.55-4.61,4.55ZM228.57,29.25c-2.58,0-4.61-2-4.61-4.55V-2.61c0-2.55,2.03-4.55,4.61-4.55s4.61,2,4.61,4.55v27.31c0,2.55-2.03,4.55-4.61,4.55Z"/>
      <path d="M87.69,337.53c-1.2,0-2.4-.46-3.23-1.37-1.75-1.82-1.75-4.64,0-6.46l19.47-19.21c1.75-1.82,4.71-1.82,6.55,0s1.75,4.64,0,6.46l-19.56,19.3c-.92.91-2.03,1.27-3.23,1.27ZM349.88,78.86c-1.2,0-2.4-.46-3.23-1.37-1.85-1.73-1.85-4.64,0-6.46l19.56-19.3c1.85-1.73,4.71-1.73,6.55,0s1.85,4.64,0,6.46l-19.65,19.3c-.83.91-2.03,1.37-3.23,1.37Z"/>
      <path d="M427.84,198.55h-27.68c-2.58,0-4.61-2-4.61-4.55s2.03-4.55,4.61-4.55h27.68c2.58,0,4.61,2,4.61,4.55s-2.03,4.55-4.61,4.55ZM56.97,198.55h-27.68c-2.58,0-4.61-2-4.61-4.55s2.03-4.55,4.61-4.55h27.68c2.58,0,4.61,2,4.61,4.55s-2.03,4.55-4.61,4.55Z"/>
      <path d="M369.44,337.53c-1.2,0-2.4-.46-3.23-1.37l-19.56-19.21c-1.85-1.82-1.85-4.64,0-6.46s4.71-1.82,6.55,0l19.56,19.3c1.85,1.82,1.85,4.64,0,6.46-.92.91-2.12,1.27-3.32,1.27ZM107.25,78.86c-1.2,0-2.4-.46-3.23-1.37l-19.65-19.3c-1.75-1.73-1.75-4.64,0-6.46s4.71-1.73,6.55,0l19.56,19.39c1.75,1.73,1.75,4.64,0,6.46-.83.82-2.03,1.27-3.23,1.27Z"/>
    </g>
  </g>
</svg>